<?xml version="1.0" encoding="utf-8"?>
<svg version="1.1" xmlns:xlink="http://www.w3.org/1999/xlink" width="15px" height="15px" xmlns="http://www.w3.org/2000/svg">
  <g transform="matrix(1 0 0 1 -347 -559 )">
    <path d="M 354.5 559  C 358.7 559  362 562.3  362 566.5  C 362 570.7  358.7 574  354.5 574  C 350.3 574  347 570.7  347 566.5  C 347 562.3  350.3 559  354.5 559  Z " fill-rule="nonzero" fill="#ffffff" stroke="none" />
    <path d="M 354.5 559.5  C 358.42 559.5  361.5 562.58  361.5 566.5  C 361.5 570.42  358.42 573.5  354.5 573.5  C 350.58 573.5  347.5 570.42  347.5 566.5  C 347.5 562.58  350.58 559.5  354.5 559.5  Z " stroke-width="1" stroke="#797979" fill="none" />
  </g>
</svg>