<?xml version="1.0" encoding="utf-8"?>
<svg version="1.1" xmlns:xlink="http://www.w3.org/1999/xlink" width="28px" height="21px" xmlns="http://www.w3.org/2000/svg">
  <g transform="matrix(1 0 0 1 -510 -637 )">
    <path d="M 8.51666666666666 4.265625  C 9.0611111111111 4.77604166666665  9.33333333333333 5.39583333333335  9.33333333333333 6.125  C 9.33333333333333 6.85416666666666  9.0611111111111 7.47395833333335  8.51666666666666 7.984375  C 7.97222222222222 8.49479166666666  7.31111111111111 8.75  6.53333333333334 8.75  C 5.75555555555556 8.75  5.09444444444445 8.49479166666666  4.55 7.984375  C 4.00555555555556 7.47395833333335  3.73333333333334 6.85416666666666  3.73333333333334 6.125  C 3.73333333333334 5.39583333333335  4.00555555555556 4.77604166666665  4.55 4.265625  C 5.09444444444445 3.75520833333335  5.75555555555556 3.5  6.53333333333334 3.5  C 7.31111111111111 3.5  7.97222222222222 3.75520833333335  8.51666666666666 4.265625  Z M 18.2 5.6875  L 24.2666666666667 11.375  L 24.2666666666667 17.5  L 3.73333333333334 17.5  L 3.73333333333334 14.875  L 8.39999999999999 10.5  L 10.7333333333333 12.6875  L 18.2 5.6875  Z M 25.9947916666667 1.8798828125  C 25.9024305555556 1.79329427083335  25.7930555555556 1.75  25.6666666666667 2  L 2.33333333333333 2  C 2.20694444444445 1.75  2.09756944444445 1.79329427083335  2.00520833333333 1.8798828125  C 1.91284722222222 1.96647135416665  1.86666666666667 2.06901041666665  2 2.1875  L 2 18.8125  C 1.86666666666667 18.9309895833333  1.91284722222222 19.0335286458333  2.00520833333333 19.1201171875  C 2.09756944444445 19.2067057291667  2.20694444444445 19.25  2.33333333333333 19  L 25.6666666666667 19  C 25.7930555555556 19.25  25.9024305555556 19.2067057291667  25.9947916666667 19.1201171875  C 26.0871527777778 19.0335286458333  26.1333333333333 18.9309895833333  26 18.8125  L 26 2.1875  C 26.1333333333333 2.06901041666665  26.0871527777778 1.96647135416665  25.9947916666667 1.8798828125  Z M 27.3145833333333 0.642578125  C 27.7715277777778 1.07096354166665  28 1.5859375  28 2.1875  L 28 18.8125  C 28 19.4140625  27.7715277777778 19.9290364583333  27.3145833333333 20.357421875  C 26.8576388888889 20.7858072916667  26.3083333333333 21  25.6666666666667 21  L 2.33333333333333 21  C 1.69166666666667 21  1.14236111111111 20.7858072916667  0.685416666666658 20.357421875  C 0.228472222222225 19.9290364583333  0 19.4140625  0 18.8125  L 0 2.1875  C 0 1.5859375  0.228472222222225 1.07096354166665  0.685416666666658 0.642578125  C 1.14236111111111 0.214192708333345  1.69166666666667 0  2.33333333333333 0  L 25.6666666666667 0  C 26.3083333333333 0  26.8576388888889 0.214192708333345  27.3145833333333 0.642578125  Z " fill-rule="nonzero" fill="#098ae8" stroke="none" transform="matrix(1 0 0 1 510 637 )" />
  </g>
</svg>