<?xml version="1.0" encoding="utf-8"?>
<svg version="1.1" xmlns:xlink="http://www.w3.org/1999/xlink" width="306px" height="10px" preserveAspectRatio="xMinYMid meet" viewBox="643 979  306 8" xmlns="http://www.w3.org/2000/svg">
  <path d="M 1101 565  L 1150 565  A 5 5 0 0 0 1155 560 L 1155 468  A 5 5 0 0 0 1150 463 L 653 463  A 5 5 0 0 0 648 468 L 648 978  A 5 5 0 0 0 653 983 L 939 983  A 5 5 0 0 1 944 988 L 944 1018  " stroke-width="2" stroke="#ff0000" fill="none" />
  <path d="M 1102.5 561.5  A 3.5 3.5 0 0 0 1099 565 A 3.5 3.5 0 0 0 1102.5 568.5 A 3.5 3.5 0 0 0 1106 565 A 3.5 3.5 0 0 0 1102.5 561.5 Z M 936.4 1017  L 944 1024  L 951.6 1017  L 936.4 1017  Z " fill-rule="nonzero" fill="#ff0000" stroke="none" />
</svg>