<?xml version="1.0" encoding="utf-8"?>
<svg version="1.1" xmlns:xlink="http://www.w3.org/1999/xlink" width="10px" height="463px" preserveAspectRatio="xMidYMin meet" viewBox="1875 518  8 463" xmlns="http://www.w3.org/2000/svg">
  <path d="M 1730 523  L 1874 523  A 5 5 0 0 1 1879 528 L 1879 971  A 5 5 0 0 0 1884 976 L 2175 976  A 5 5 0 0 1 2180 981 L 2180 1022  " stroke-width="2" stroke="#ff0000" fill="none" />
  <path d="M 1731.5 519.5  A 3.5 3.5 0 0 0 1728 523 A 3.5 3.5 0 0 0 1731.5 526.5 A 3.5 3.5 0 0 0 1735 523 A 3.5 3.5 0 0 0 1731.5 519.5 Z M 2172.4 1021  L 2180 1028  L 2187.6 1021  L 2172.4 1021  Z " fill-rule="nonzero" fill="#ff0000" stroke="none" />
</svg>