<?xml version="1.0" encoding="utf-8"?>
<svg version="1.1" xmlns:xlink="http://www.w3.org/1999/xlink" width="130px" height="81px" xmlns="http://www.w3.org/2000/svg">
  <g transform="matrix(1 0 0 1 -25 -181 )">
    <path d="M 25 181  L 155 181  L 155 262  L 25 262  L 25 181  " fill-rule="nonzero" fill="#cccccc" stroke="none" />
    <path d="M 31 187  L 149 187  L 149 256  L 31 256  L 31 187  " fill-rule="nonzero" fill="#ffffff" stroke="none" />
    <path d="M 98.675 205.3  C 95.273 205.3  92.6 202.627  92.6 199.225  C 92.6 195.823  95.273 193.15  98.675 193.15  C 102.077 193.15  104.75 195.823  104.75 199.225  C 104.75 202.627  102.077 205.3  98.675 205.3  " fill-rule="nonzero" fill="#cccccc" stroke="none" />
    <path d="M 33 254  L 33 218.25  L 61.5 202  L 101.4 229.7  L 124.2 211.75  L 147 229.7  L 147 254  L 33 254  " fill-rule="nonzero" fill="#169bd5" stroke="none" />
  </g>
</svg>