<?xml version="1.0" encoding="utf-8"?>
<svg version="1.1" xmlns:xlink="http://www.w3.org/1999/xlink" width="44px" height="33px" xmlns="http://www.w3.org/2000/svg">
  <g transform="matrix(1 0 0 1 -475 -481 )">
    <path d="M 13.3833333333333 6.703125  C 14.2388888888889 7.50520833333331  14.6666666666667 8.47916666666669  14.6666666666667 9.625  C 14.6666666666667 10.7708333333333  14.2388888888889 11.7447916666667  13.3833333333333 12.546875  C 12.5277777777778 13.3489583333333  11.4888888888889 13.75  10.2666666666667 13.75  C 9.04444444444445 13.75  8.00555555555556 13.3489583333333  7.15 12.546875  C 6.29444444444445 11.7447916666667  5.86666666666667 10.7708333333333  5.86666666666667 9.625  C 5.86666666666667 8.47916666666669  6.29444444444445 7.50520833333331  7.15 6.703125  C 8.00555555555556 5.90104166666669  9.04444444444445 5.5  10.2666666666667 5.5  C 11.4888888888889 5.5  12.5277777777778 5.90104166666669  13.3833333333333 6.703125  Z M 28.6 8.9375  L 38.1333333333333 17.875  L 38.1333333333333 27  L 5.86666666666667 27  L 5.86666666666667 23.375  L 13.2 16.5  L 16.8666666666667 19.9375  L 28.6 8.9375  Z M 40.8489583333333 2.9541015625  C 40.7038194444444 2.81803385416669  40.5319444444444 2.75  40.3333333333333 3  L 3.66666666666666 3  C 3.46805555555557 2.75  3.29618055555557 2.81803385416669  3.15104166666666 2.9541015625  C 3.00590277777778 3.09016927083331  2.93333333333334 3.25130208333331  3 3.4375  L 3 29.5625  C 2.93333333333334 29.7486979166666  3.00590277777778 29.9098307291666  3.15104166666666 30.0458984375  C 3.29618055555557 30.1819661458334  3.46805555555557 30.25  3.66666666666666 30  L 40.3333333333333 30  C 40.5319444444444 30.25  40.7038194444444 30.1819661458334  40.8489583333333 30.0458984375  C 40.9940972222222 29.9098307291666  41.0666666666667 29.7486979166666  41 29.5625  L 41 3.4375  C 41.0666666666667 3.25130208333331  40.9940972222222 3.09016927083331  40.8489583333333 2.9541015625  Z M 42.9229166666667 1.009765625  C 43.6409722222222 1.68294270833331  44 2.4921875  44 3.4375  L 44 29.5625  C 44 30.5078125  43.6409722222222 31.3170572916666  42.9229166666667 31.990234375  C 42.2048611111111 32.6634114583334  41.3416666666667 33  40.3333333333333 33  L 3.66666666666666 33  C 2.65833333333333 33  1.79513888888889 32.6634114583334  1.07708333333332 31.990234375  C 0.359027777777783 31.3170572916666  0 30.5078125  0 29.5625  L 0 3.4375  C 0 2.4921875  0.359027777777783 1.68294270833331  1.07708333333332 1.009765625  C 1.79513888888889 0.336588541666686  2.65833333333333 0  3.66666666666666 0  L 40.3333333333333 0  C 41.3416666666667 0  42.2048611111111 0.336588541666686  42.9229166666667 1.009765625  Z " fill-rule="nonzero" fill="#098ae8" stroke="none" transform="matrix(1 0 0 1 475 481 )" />
  </g>
</svg>