<?xml version="1.0" encoding="utf-8"?>
<svg version="1.1" xmlns:xlink="http://www.w3.org/1999/xlink" width="22px" height="17px" xmlns="http://www.w3.org/2000/svg">
  <g transform="matrix(1 0 0 1 -344 -709 )">
    <path d="M 6.69166666666661 3.453125  C 7.11944444444441 3.86631944444446  7.33333333333337 4.36805555555554  7.33333333333337 4.95833333333331  C 7.33333333333337 5.54861111111109  7.11944444444441 6.05034722222223  6.69166666666661 6.46354166666669  C 6.2638888888888 6.87673611111109  5.74444444444441 7.08333333333331  5.13333333333333 7.08333333333331  C 4.52222222222224 7.08333333333331  4.00277777777774 6.87673611111109  3.57500000000005 6.46354166666669  C 3.14722222222224 6.05034722222223  2.93333333333339 5.54861111111109  2.93333333333339 4.95833333333331  C 2.93333333333339 4.36805555555554  3.14722222222224 3.86631944444446  3.57500000000005 3.453125  C 4.00277777777774 3.03993055555554  4.52222222222224 2.83333333333331  5.13333333333333 2.83333333333331  C 5.74444444444441 2.83333333333331  6.2638888888888 3.03993055555554  6.69166666666661 3.453125  Z M 14.3 4.60416666666669  L 19.0666666666666 9.20833333333331  L 19.0666666666666 14  L 2.93333333333339 14  L 2.93333333333339 12.0416666666667  L 6.60000000000002 8.5  L 8.43333333333339 10.2708333333333  L 14.3 4.60416666666669  Z M 20.4244791666666 1.52180989583331  C 20.3519097222222 1.45171440972223  20.2659722222222 1.41666666666669  20.1666666666666 1.41666666666669  L 1.83333333333337 1.41666666666669  C 1.73402777777778 1.41666666666669  1.64809027777778 1.45171440972223  1.57552083333337 1.52180989583331  C 1.50295138888896 1.59190538194446  1.4666666666667 1.67491319444446  1.4666666666667 1.77083333333331  L 1.4666666666667 15.2291666666667  C 1.4666666666667 15.3250868055555  1.50295138888896 15.4080946180555  1.57552083333337 15.4781901041667  C 1.64809027777778 15.5482855902778  1.73402777777778 15.5833333333333  1.83333333333337 15.5833333333333  L 20.1666666666666 15.5833333333333  C 20.2659722222222 15.5833333333333  20.3519097222222 15.5482855902778  20.4244791666666 15.4781901041667  C 20.497048611111 15.4080946180555  20.5333333333333 15.3250868055555  20.5333333333333 15.2291666666667  L 20.5333333333333 1.77083333333331  C 20.5333333333333 1.67491319444446  20.497048611111 1.59190538194446  20.4244791666666 1.52180989583331  Z M 21.4614583333333 0.520182291666686  C 21.8204861111111 0.866970486111086  22 1.28385416666669  22 1.77083333333331  L 22 15.2291666666667  C 22 15.7161458333333  21.8204861111111 16.1330295138889  21.4614583333333 16.4798177083333  C 21.1024305555555 16.8266059027778  20.6708333333333 17  20.1666666666666 17  L 1.83333333333337 17  C 1.32916666666665 17  0.897569444444457 16.8266059027778  0.538541666666674 16.4798177083333  C 0.179513888888891 16.1330295138889  0 15.7161458333333  0 15.2291666666667  L 0 1.77083333333331  C 0 1.28385416666669  0.179513888888891 0.866970486111086  0.538541666666674 0.520182291666686  C 0.897569444444457 0.173394097222229  1.32916666666665 0  1.83333333333337 0  L 20.1666666666666 0  C 20.6708333333333 0  21.1024305555555 0.173394097222229  21.4614583333333 0.520182291666686  Z " fill-rule="nonzero" fill="#098ae8" stroke="none" transform="matrix(1 0 0 1 344 709 )" />
  </g>
</svg>