<?xml version="1.0" standalone="no"?><!DOCTYPE svg PUBLIC "-//W3C//DTD SVG 1.1//EN" "http://www.w3.org/Graphics/SVG/1.1/DTD/svg11.dtd"><svg t="1536892033052" class="icon" style="" viewBox="0 0 1252 1024" version="1.1" xmlns="http://www.w3.org/2000/svg" p-id="6325" xmlns:xlink="http://www.w3.org/1999/xlink" width="39.125" height="32"><defs><style type="text/css"></style></defs><path d="M449.183193 802.678319l67.63563-1.032605-1.548908-10.842353c-0.516303-4.646723-6.19563-47.671933 1.032605-106.53042 6.711933-55.24437 25.126723-136.820168 78.305882-212.544538 74.863866-106.53042 198.776471-180.361681 368.295798-220.289076l-128.043025 202.390588 57.30958 36.313277L1088.021513 180.877983 753.973782 0l-32.354958 59.37479 230.443025 124.94521C762.750924 227.517311 623.865546 311.502521 538.847731 433.349916c-121.331092 174.16605-91.213445 359.518655-91.213445 361.067563L449.183193 802.678319z" p-id="6326" fill="#8a8a8a"></path><path d="M967.550924 941.563697c0 10.842353-9.809748 19.447395-21.512605 19.447395l-860.504202 0c-11.702857 0-21.512605-8.777143-21.512605-19.447395L64.021513 278.631261c0-10.842353 9.809748-19.447395 21.512605-19.447395l211.511933 0 0-63.50521L85.534118 195.678655c-47.15563 0-85.534118 37.345882-85.534118 82.952605l0 662.244034c0 46.123025 38.378487 82.952605 85.534118 82.952605l860.504202 0c47.15563 0 85.534118-37.345882 85.534118-82.952605L1031.572437 703.376134l-63.50521 0 0 238.187563L967.550924 941.563697z" p-id="6327" fill="#8a8a8a"></path></svg>