<?xml version="1.0" encoding="utf-8"?>
<svg version="1.1" xmlns:xlink="http://www.w3.org/1999/xlink" width="218px" height="22px" xmlns="http://www.w3.org/2000/svg">
  <g transform="matrix(1 0 0 1 -730 -574 )">
    <path d="M 743.5 581.5  A 3.5 3.5 0 0 0 740 585 A 3.5 3.5 0 0 0 743.5 588.5 A 3.5 3.5 0 0 0 747 585 A 3.5 3.5 0 0 0 743.5 581.5 Z M 930.892893218813 580.707106781187  L 935.185786437627 585  L 930.892893218813 589.292893218813  L 932.307106781187 590.707106781187  L 937.307106781187 585.707106781187  L 938.014213562373 585  L 937.307106781187 584.292893218813  L 932.307106781187 579.292893218813  L 930.892893218813 580.707106781187  Z " fill-rule="nonzero" fill="#ff0000" stroke="none" />
    <path d="M 742 585  L 936 585  " stroke-width="2" stroke="#ff0000" fill="none" />
  </g>
</svg>