<?xml version="1.0" encoding="utf-8"?>
<svg version="1.1" xmlns:xlink="http://www.w3.org/1999/xlink" width="196px" height="22px" xmlns="http://www.w3.org/2000/svg">
  <g transform="matrix(1 0 0 1 -685 -974 )">
    <path d="M 698.5 981.5  A 3.5 3.5 0 0 0 695 985 A 3.5 3.5 0 0 0 698.5 988.5 A 3.5 3.5 0 0 0 702 985 A 3.5 3.5 0 0 0 698.5 981.5 Z M 867.5 981.5  A 3.5 3.5 0 0 0 864 985 A 3.5 3.5 0 0 0 867.5 988.5 A 3.5 3.5 0 0 0 871 985 A 3.5 3.5 0 0 0 867.5 981.5 Z " fill-rule="nonzero" fill="#ff0000" stroke="none" />
    <path d="M 697 985  L 869 985  " stroke-width="2" stroke="#ff0000" fill="none" />
  </g>
</svg>