<?xml version="1.0" encoding="utf-8"?>
<svg version="1.1" xmlns:xlink="http://www.w3.org/1999/xlink" width="15px" height="15px" xmlns="http://www.w3.org/2000/svg">
  <g transform="matrix(1 0 0 1 -401 -284 )">
    <path d="M 4.5625 3.046875  C 4.85416666666666 3.41145833333332  5 3.85416666666668  5 4.375  C 5 4.89583333333333  4.85416666666666 5.33854166666668  4.5625 5.703125  C 4.27083333333333 6.06770833333333  3.91666666666666 6.25  3.5 6.25  C 3.08333333333334 6.25  2.72916666666667 6.06770833333333  2.4375 5.703125  C 2.14583333333334 5.33854166666668  2 4.89583333333333  2 4.375  C 2 3.85416666666668  2.14583333333334 3.41145833333332  2.4375 3.046875  C 2.72916666666667 2.68229166666668  3.08333333333334 2.5  3.5 2.5  C 3.91666666666666 2.5  4.27083333333333 2.68229166666668  4.5625 3.046875  Z M 9.75 4.0625  L 13 8.125  L 13 12.5  L 2 12.5  L 2 10.625  L 4.5 7.5  L 5.75 9.0625  L 9.75 4.0625  Z M 13.92578125 1.3427734375  C 13.8763020833333 1.28092447916668  13.8177083333333 1.25  13.75 1.25  L 1.25 1.25  C 1.18229166666667 1.25  1.12369791666667 1.28092447916668  1.07421875 1.3427734375  C 1.02473958333333 1.40462239583332  1 1.47786458333332  1 1.5625  L 1 13.4375  C 1 13.5221354166667  1.02473958333333 13.5953776041667  1.07421875 13.6572265625  C 1.12369791666667 13.7190755208333  1.18229166666667 13.75  1.25 13.75  L 13.75 13.75  C 13.8177083333333 13.75  13.8763020833333 13.7190755208333  13.92578125 13.6572265625  C 13.9752604166667 13.5953776041667  14 13.5221354166667  14 13.4375  L 14 1.5625  C 14 1.47786458333332  13.9752604166667 1.40462239583332  13.92578125 1.3427734375  Z M 14.6328125 0.458984375  C 14.8776041666667 0.764973958333325  15 1.1328125  15 1.5625  L 15 13.4375  C 15 13.8671875  14.8776041666667 14.2350260416666  14.6328125 14.541015625  C 14.3880208333333 14.8470052083333  14.09375 15  13.75 15  L 1.25 15  C 0.906249999999999 15  0.611979166666666 14.8470052083333  0.367187499999995 14.541015625  C 0.122395833333335 14.2350260416666  0 13.8671875  0 13.4375  L 0 1.5625  C 0 1.1328125  0.122395833333335 0.764973958333325  0.367187499999995 0.458984375  C 0.611979166666666 0.152994791666675  0.906249999999999 0  1.25 0  L 13.75 0  C 14.09375 0  14.3880208333333 0.152994791666675  14.6328125 0.458984375  Z " fill-rule="nonzero" fill="#098ae8" stroke="none" transform="matrix(1 0 0 1 401 284 )" />
  </g>
</svg>