<?xml version="1.0" encoding="utf-8"?>
<svg version="1.1" xmlns:xlink="http://www.w3.org/1999/xlink" width="310px" height="22px" xmlns="http://www.w3.org/2000/svg">
  <g transform="matrix(1 0 0 1 -431 -281 )">
    <path d="M 444.5 288.5  A 3.5 3.5 0 0 0 441 292 A 3.5 3.5 0 0 0 444.5 295.5 A 3.5 3.5 0 0 0 448 292 A 3.5 3.5 0 0 0 444.5 288.5 Z M 723.892893218813 287.707106781187  L 728.185786437627 292  L 723.892893218813 296.292893218813  L 725.307106781187 297.707106781187  L 730.307106781187 292.707106781187  L 731.014213562373 292  L 730.307106781187 291.292893218813  L 725.307106781187 286.292893218813  L 723.892893218813 287.707106781187  Z " fill-rule="nonzero" fill="#ff0000" stroke="none" />
    <path d="M 443 292  L 729 292  " stroke-width="2" stroke="#ff0000" fill="none" />
  </g>
</svg>