<?xml version="1.0" encoding="utf-8"?>
<svg version="1.1" xmlns:xlink="http://www.w3.org/1999/xlink" width="21px" height="20px" preserveAspectRatio="xMinYMid meet" viewBox="1092 619  21 18" xmlns="http://www.w3.org/2000/svg">
  <path d="M 1101 628  L 1239.65408805032 628  A 5 5 0 0 1 1244.65408805032 633 L 1244.65408805032 1347  A 5 5 0 0 0 1249.65408805032 1352 L 1372 1352  " stroke-width="2" stroke="#ff0000" fill="none" />
  <path d="M 1102.5 624.5  A 3.5 3.5 0 0 0 1099 628 A 3.5 3.5 0 0 0 1102.5 631.5 A 3.5 3.5 0 0 0 1106 628 A 3.5 3.5 0 0 0 1102.5 624.5 Z M 1371 1359.6  L 1378 1352  L 1371 1344.4  L 1371 1359.6  Z " fill-rule="nonzero" fill="#ff0000" stroke="none" />
</svg>