<?xml version="1.0" encoding="utf-8"?>
<svg version="1.1" xmlns:xlink="http://www.w3.org/1999/xlink" width="85px" height="10px" preserveAspectRatio="xMinYMid meet" viewBox="1099 599  85 8" xmlns="http://www.w3.org/2000/svg">
  <path d="M 1101 603  L 1174 603  A 5 5 0 0 0 1179 598 L 1179 75.6666666666654  A 5 5 0 0 1 1184 70.6666666666654 L 2167 70.6666666666654  A 5 5 0 0 1 2172 75.6666666666654 L 2172 99  " stroke-width="2" stroke="#ff0000" fill="none" />
  <path d="M 1102.5 599.5  A 3.5 3.5 0 0 0 1099 603 A 3.5 3.5 0 0 0 1102.5 606.5 A 3.5 3.5 0 0 0 1106 603 A 3.5 3.5 0 0 0 1102.5 599.5 Z M 2164.4 98  L 2172 105  L 2179.6 98  L 2164.4 98  Z " fill-rule="nonzero" fill="#ff0000" stroke="none" />
</svg>