<?xml version="1.0" encoding="utf-8"?>
<svg version="1.1" xmlns:xlink="http://www.w3.org/1999/xlink" width="10px" height="734px" preserveAspectRatio="xMidYMin meet" viewBox="2470.65408805032 598  8 734" xmlns="http://www.w3.org/2000/svg">
  <path d="M 2331 603  L 2469.65408805032 603  A 5 5 0 0 1 2474.65408805032 608 L 2474.65408805032 1322  A 5 5 0 0 0 2479.65408805032 1327 L 2602 1327  " stroke-width="2" stroke="#ff0000" fill="none" />
  <path d="M 2332.5 599.5  A 3.5 3.5 0 0 0 2329 603 A 3.5 3.5 0 0 0 2332.5 606.5 A 3.5 3.5 0 0 0 2336 603 A 3.5 3.5 0 0 0 2332.5 599.5 Z M 2601 1334.6  L 2608 1327  L 2601 1319.4  L 2601 1334.6  Z " fill-rule="nonzero" fill="#ff0000" stroke="none" />
</svg>