<?xml version="1.0" encoding="utf-8"?>
<svg version="1.1" xmlns:xlink="http://www.w3.org/1999/xlink" width="307px" height="22px" xmlns="http://www.w3.org/2000/svg">
  <g transform="matrix(1 0 0 1 -648 -741 )">
    <path d="M 661.5 748.5  A 3.5 3.5 0 0 0 658 752 A 3.5 3.5 0 0 0 661.5 755.5 A 3.5 3.5 0 0 0 665 752 A 3.5 3.5 0 0 0 661.5 748.5 Z M 941.5 748.5  A 3.5 3.5 0 0 0 938 752 A 3.5 3.5 0 0 0 941.5 755.5 A 3.5 3.5 0 0 0 945 752 A 3.5 3.5 0 0 0 941.5 748.5 Z " fill-rule="nonzero" fill="#ff0000" stroke="none" />
    <path d="M 660 752  L 943 752  " stroke-width="2" stroke="#ff0000" fill="none" />
  </g>
</svg>