<?xml version="1.0" encoding="utf-8"?>
<svg version="1.1" xmlns:xlink="http://www.w3.org/1999/xlink" width="16px" height="16px" xmlns="http://www.w3.org/2000/svg">
  <g transform="matrix(1 0 0 1 -167 -182 )">
    <path d="M 15.8575195898159 15.7999999961426  C 16.0574043062752 15.5333333243327  16.0574043062752 15.1333333244302  15.790891366612 14.9333333244792  L 12.9258773159879 12.0666666533043  C 13.9919290590235 10.7999999973633  14.6582114003727 9.13333332589514  14.6582114003727 7.3333333263347  C 14.6582114003727 3.26666665545258  11.3934279480618 0  7.32910570799436 0  C 3.26478345231089 0  0 3.26666667107747  0 7.3333333263347  C 0 11.3999999972168  3.26478345231089 14.6666666526694  7.32910569237856 14.6666666526694  C 9.12806799996702 14.6666666526694  10.7937738455325 13.999999980957  12.0597102737952 12.9333333249676  L 14.9247243244199 15.7999999961426  C 15.1912372640827 16.0666666679526  15.5910066657689 16.0666666679526  15.8575195898159 15.7999999961426  Z M 7.32910569237856 13.33333332487  C 3.99769401686399 13.33333332487  1.33256466708258 10.6666666692709  1.33256466708258 7.3333333263347  C 1.33256466708258 3.99999999902343  3.99769401686399 1.33333332779966  7.32910569237856 1.33333332779966  C 10.6605173678929 1.33333332779966  13.3256467176741 3.99999999902343  13.3256467176741 7.3333333263347  C 13.3256467176741 10.6666666536457  10.6605173678929 13.33333332487  7.32910569237856 13.33333332487  Z " fill-rule="nonzero" fill="#999999" stroke="none" transform="matrix(1 0 0 1 167 182 )" />
  </g>
</svg>