<?xml version="1.0" encoding="utf-8"?>
<svg version="1.1" xmlns:xlink="http://www.w3.org/1999/xlink" width="90px" height="56px" xmlns="http://www.w3.org/2000/svg">
  <g transform="matrix(1 0 0 1 -282 -172 )">
    <path d="M 282 172  L 372 172  L 372 228  L 282 228  L 282 172  " fill-rule="nonzero" fill="#cccccc" stroke="none" />
    <path d="M 286 176  L 368 176  L 368 224  L 286 224  L 286 176  " fill-rule="nonzero" fill="#ffffff" stroke="none" />
    <path d="M 333 188.8  C 330.648 188.8  328.8 186.952  328.8 184.6  C 328.8 182.248  330.648 180.4  333 180.4  C 335.352 180.4  337.2 182.248  337.2 184.6  C 337.2 186.952  335.352 188.8  333 188.8  " fill-rule="nonzero" fill="#cccccc" stroke="none" />
    <path d="M 288 223  L 288 198.25  L 307.75 187  L 335.4 206.2  L 351.2 193.75  L 367 206.2  L 367 223  L 288 223  " fill-rule="nonzero" fill="#169bd5" stroke="none" />
  </g>
</svg>