<?xml version="1.0" encoding="utf-8"?>
<svg version="1.1" xmlns:xlink="http://www.w3.org/1999/xlink" width="190px" height="22px" xmlns="http://www.w3.org/2000/svg">
  <g transform="matrix(1 0 0 1 -2031 -361 )">
    <path d="M 2044.5 368.5  A 3.5 3.5 0 0 0 2041 372 A 3.5 3.5 0 0 0 2044.5 375.5 A 3.5 3.5 0 0 0 2048 372 A 3.5 3.5 0 0 0 2044.5 368.5 Z M 2207.5 368.5  A 3.5 3.5 0 0 0 2204 372 A 3.5 3.5 0 0 0 2207.5 375.5 A 3.5 3.5 0 0 0 2211 372 A 3.5 3.5 0 0 0 2207.5 368.5 Z " fill-rule="nonzero" fill="#ff0000" stroke="none" />
    <path d="M 2043 372  L 2209 372  " stroke-width="2" stroke="#ff0000" fill="none" />
  </g>
</svg>