<?xml version="1.0" encoding="utf-8"?>
<svg version="1.1" xmlns:xlink="http://www.w3.org/1999/xlink" width="80px" height="78px" xmlns="http://www.w3.org/2000/svg">
  <g transform="matrix(1 0 0 1 -168 -453 )">
    <path d="M 80 6.4620456445428  C 79.999919519648 2.75255217237014  76.8548524687615 0  73.3381770298119 0  L 6.39317963396192 0  C 2.87658467536426 0  0 2.75255217237014  0 6.4620456445428  L 0 71.2550347721905  C 0 74.9644434871233  2.87650419501227 78  6.39317963396192 78  L 73.8716799456576 78  C 77.3882749042552 78  80 74.9644434871233  80 71.2550347721905  L 80 6.4620456445428  Z M 15.965721175972 19.9097544013406  C 15.965721175972 14.209989106686  20.3566748968676 9.58967610933384  25.7726111183758 9.58967610933384  C 31.1884668595319 9.58967610933384  35.5795010607795 14.2100739467773  35.5795010607795 19.9097544013406  C 35.5795010607795 25.6094348559036  31.1885473398839 30.2298326933471  25.7726111183758 30.2298326933471  C 20.3566748968677 30.2298326933471  15.965721175972 25.6094348559036  15.965721175972 19.9097544013406  Z M 72.1990390895754 69.810593525206  C 72.1285977764602 69.7923652504613  9.03533534990962 69.8205978621501  9.00490465103576 69.8205978621501  C 8.26957707351806 69.8205978621501  7.52853373892074 69.5537869598218  6.92660199078475 69.0079565500276  C 5.58547850684334 67.7962435214073  5.42929989348224 65.6677761380918  6.579869347878 64.253263061848  L 21.2806242674453 40.916934771602  C 22.3722644819081 39.5727913314807  24.2619451917573 39.3480326134948  25.612568268056 40.4013717272107  L 38.583604769071 50.5467130688035  L 61.8245123348683 22.7425108665944  C 62.9255715826654 21.2879804425746  68.764397674617 14.4367825783863  72.1818916609946 22.2069391483149  C 72.1856753389304 22.1949000576565  72.1895395758891 32.4808109084591  72.1933232538248 42.9833412966871  C 72.1971069317606 53.9375087146926  72.1990390895754 69.810593525206  72.1990390895754 69.810593525206  Z " fill-rule="nonzero" fill="#ffffff" stroke="none" transform="matrix(1 0 0 1 168 453 )" />
  </g>
</svg>