<?xml version="1.0" encoding="utf-8"?>
<svg version="1.1" xmlns:xlink="http://www.w3.org/1999/xlink" width="104px" height="22px" xmlns="http://www.w3.org/2000/svg">
  <g transform="matrix(1 0 0 1 -779 -633 )">
    <path d="M 792.5 640.5  A 3.5 3.5 0 0 0 789 644 A 3.5 3.5 0 0 0 792.5 647.5 A 3.5 3.5 0 0 0 796 644 A 3.5 3.5 0 0 0 792.5 640.5 Z M 865.892893218813 639.707106781187  L 870.185786437627 644  L 865.892893218813 648.292893218813  L 867.307106781187 649.707106781187  L 872.307106781187 644.707106781187  L 873.014213562373 644  L 872.307106781187 643.292893218813  L 867.307106781187 638.292893218813  L 865.892893218813 639.707106781187  Z " fill-rule="nonzero" fill="#ff0000" stroke="none" />
    <path d="M 791 644  L 871 644  " stroke-width="2" stroke="#ff0000" fill="none" />
  </g>
</svg>