<?xml version="1.0" encoding="utf-8"?>
<svg version="1.1" xmlns:xlink="http://www.w3.org/1999/xlink" width="50px" height="43px" xmlns="http://www.w3.org/2000/svg">
  <g transform="matrix(1 0 0 1 -351 -470 )">
    <path d="M 351 470  L 401 470  L 401 513  L 351 513  L 351 470  " fill-rule="nonzero" fill="#cccccc" stroke="none" />
    <path d="M 354 473  L 398 473  L 398 510  L 354 510  L 354 473  " fill-rule="nonzero" fill="#ffffff" stroke="none" />
    <path d="M 380.225 482.9  C 378.419 482.9  377 481.481  377 479.675  C 377 477.869  378.419 476.45  380.225 476.45  C 382.031 476.45  383.45 477.869  383.45 479.675  C 383.45 481.481  382.031 482.9  380.225 482.9  " fill-rule="nonzero" fill="#cccccc" stroke="none" />
    <path d="M 355 509  L 355 489.75  L 365.5 481  L 380.2 490.94  L 388.6 486.25  L 397 490.94  L 397 509  L 355 509  " fill-rule="nonzero" fill="#169bd5" stroke="none" />
  </g>
</svg>