<?xml version="1.0" encoding="utf-8"?>
<svg version="1.1" xmlns:xlink="http://www.w3.org/1999/xlink" width="334px" height="22px" xmlns="http://www.w3.org/2000/svg">
  <g transform="matrix(1 0 0 1 -1646 -419 )">
    <path d="M 1659.5 426.5  A 3.5 3.5 0 0 0 1656 430 A 3.5 3.5 0 0 0 1659.5 433.5 A 3.5 3.5 0 0 0 1663 430 A 3.5 3.5 0 0 0 1659.5 426.5 Z M 1962.89289321881 425.707106781187  L 1967.18578643763 430  L 1962.89289321881 434.292893218813  L 1964.30710678119 435.707106781187  L 1969.30710678119 430.707106781187  L 1970.01421356237 430  L 1969.30710678119 429.292893218813  L 1964.30710678119 424.292893218813  L 1962.89289321881 425.707106781187  Z " fill-rule="nonzero" fill="#ff0000" stroke="none" />
    <path d="M 1658 430  L 1968 430  " stroke-width="2" stroke="#ff0000" fill="none" />
  </g>
</svg>