<?xml version="1.0" encoding="utf-8"?>
<svg version="1.1" xmlns:xlink="http://www.w3.org/1999/xlink" width="85px" height="22px" xmlns="http://www.w3.org/2000/svg">
  <g transform="matrix(1 0 0 1 -908 -213 )">
    <path d="M 921.5 220.5  A 3.5 3.5 0 0 0 918 224 A 3.5 3.5 0 0 0 921.5 227.5 A 3.5 3.5 0 0 0 925 224 A 3.5 3.5 0 0 0 921.5 220.5 Z M 979.5 220.5  A 3.5 3.5 0 0 0 976 224 A 3.5 3.5 0 0 0 979.5 227.5 A 3.5 3.5 0 0 0 983 224 A 3.5 3.5 0 0 0 979.5 220.5 Z " fill-rule="nonzero" fill="#ff0000" stroke="none" />
    <path d="M 920 224  L 981 224  " stroke-width="2" stroke="#ff0000" fill="none" />
  </g>
</svg>