<?xml version="1.0" encoding="utf-8"?>
<svg version="1.1" xmlns:xlink="http://www.w3.org/1999/xlink" width="165px" height="22px" xmlns="http://www.w3.org/2000/svg">
  <g transform="matrix(1 0 0 1 -685 -620 )">
    <path d="M 698.5 627.5  A 3.5 3.5 0 0 0 695 631 A 3.5 3.5 0 0 0 698.5 634.5 A 3.5 3.5 0 0 0 702 631 A 3.5 3.5 0 0 0 698.5 627.5 Z M 836.5 627.5  A 3.5 3.5 0 0 0 833 631 A 3.5 3.5 0 0 0 836.5 634.5 A 3.5 3.5 0 0 0 840 631 A 3.5 3.5 0 0 0 836.5 627.5 Z " fill-rule="nonzero" fill="#ff0000" stroke="none" />
    <path d="M 697 631  L 838 631  " stroke-width="2" stroke="#ff0000" fill="none" />
  </g>
</svg>