<?xml version="1.0" encoding="utf-8"?>
<svg version="1.1" xmlns:xlink="http://www.w3.org/1999/xlink" width="40px" height="40px" xmlns="http://www.w3.org/2000/svg">
  <g transform="matrix(1 0 0 1 -883 -1009 )">
    <path d="M 903 1009  C 914.2 1009  923 1017.8  923 1029  C 923 1040.2  914.2 1049  903 1049  C 891.8 1049  883 1040.2  883 1029  C 883 1017.8  891.8 1009  903 1009  Z " fill-rule="nonzero" fill="#ffffff" stroke="none" />
    <path d="M 903 1009.5  C 913.92 1009.5  922.5 1018.08  922.5 1029  C 922.5 1039.92  913.92 1048.5  903 1048.5  C 892.08 1048.5  883.5 1039.92  883.5 1029  C 883.5 1018.08  892.08 1009.5  903 1009.5  Z " stroke-width="1" stroke="#797979" fill="none" />
  </g>
</svg>