<?xml version="1.0" encoding="utf-8"?>
<svg version="1.1" xmlns:xlink="http://www.w3.org/1999/xlink" width="166px" height="22px" xmlns="http://www.w3.org/2000/svg">
  <g transform="matrix(1 0 0 1 -1304 -555 )">
    <path d="M 1317.5 562.5  A 3.5 3.5 0 0 0 1314 566 A 3.5 3.5 0 0 0 1317.5 569.5 A 3.5 3.5 0 0 0 1321 566 A 3.5 3.5 0 0 0 1317.5 562.5 Z M 1452.89289321881 561.707106781187  L 1457.18578643763 566  L 1452.89289321881 570.292893218813  L 1454.30710678119 571.707106781187  L 1459.30710678119 566.707106781187  L 1460.01421356237 566  L 1459.30710678119 565.292893218813  L 1454.30710678119 560.292893218813  L 1452.89289321881 561.707106781187  Z " fill-rule="nonzero" fill="#ff0000" stroke="none" />
    <path d="M 1316 566  L 1458 566  " stroke-width="2" stroke="#ff0000" fill="none" />
  </g>
</svg>