<?xml version="1.0" encoding="utf-8"?>
<svg version="1.1" xmlns:xlink="http://www.w3.org/1999/xlink" width="183px" height="22px" xmlns="http://www.w3.org/2000/svg">
  <g transform="matrix(1 0 0 1 -1287 -367 )">
    <path d="M 1300.5 374.5  A 3.5 3.5 0 0 0 1297 378 A 3.5 3.5 0 0 0 1300.5 381.5 A 3.5 3.5 0 0 0 1304 378 A 3.5 3.5 0 0 0 1300.5 374.5 Z M 1452.89289321881 373.707106781187  L 1457.18578643763 378  L 1452.89289321881 382.292893218813  L 1454.30710678119 383.707106781187  L 1459.30710678119 378.707106781187  L 1460.01421356237 378  L 1459.30710678119 377.292893218813  L 1454.30710678119 372.292893218813  L 1452.89289321881 373.707106781187  Z " fill-rule="nonzero" fill="#ff0000" stroke="none" />
    <path d="M 1299 378  L 1458 378  " stroke-width="2" stroke="#ff0000" fill="none" />
  </g>
</svg>