<?xml version="1.0" encoding="utf-8"?>
<svg version="1.1" xmlns:xlink="http://www.w3.org/1999/xlink" width="25px" height="19px" xmlns="http://www.w3.org/2000/svg">
  <g transform="matrix(1 0 0 1 -1169 -365 )">
    <path d="M 7.60416666666666 3.859375  C 8.09027777777777 4.32118055555554  8.33333333333333 4.88194444444446  8.33333333333333 5.54166666666667  C 8.33333333333333 6.20138888888888  8.09027777777777 6.76215277777779  7.60416666666666 7.22395833333333  C 7.11805555555555 7.68576388888888  6.52777777777777 7.91666666666667  5.83333333333334 7.91666666666667  C 5.13888888888889 7.91666666666667  4.54861111111111 7.68576388888888  4.0625 7.22395833333333  C 3.57638888888889 6.76215277777779  3.33333333333334 6.20138888888888  3.33333333333334 5.54166666666667  C 3.33333333333334 4.88194444444446  3.57638888888889 4.32118055555554  4.0625 3.859375  C 4.54861111111111 3.39756944444446  5.13888888888889 3.16666666666667  5.83333333333334 3.16666666666667  C 6.52777777777777 3.16666666666667  7.11805555555555 3.39756944444446  7.60416666666666 3.859375  Z M 16.25 5.14583333333333  L 21.6666666666667 10.2916666666667  L 21.6666666666667 15.8333333333333  L 3.33333333333334 15.8333333333333  L 3.33333333333334 13.4583333333333  L 7.49999999999999 9.5  L 9.58333333333334 11.4791666666667  L 16.25 5.14583333333333  Z M 23.2096354166667 1.70084635416667  C 23.1271701388889 1.62250434027779  23.0295138888889 1.58333333333333  22.9166666666667 1.58333333333333  L 2.08333333333333 1.58333333333333  C 1.97048611111112 1.58333333333333  1.87282986111112 1.62250434027779  1.79036458333333 1.70084635416667  C 1.70789930555556 1.77918836805554  1.66666666666667 1.87196180555554  2 1.97916666666667  L 2 17.0208333333333  C 1.66666666666667 17.1280381944444  1.70789930555556 17.2208116319444  1.79036458333333 17.2991536458333  C 1.87282986111112 17.3774956597222  1.97048611111112 17.4166666666667  2.08333333333333 17.4166666666667  L 22.9166666666667 17.4166666666667  C 23.0295138888889 17.4166666666667  23.1271701388889 17.3774956597222  23.2096354166667 17.2991536458333  C 23.2921006944444 17.2208116319444  23.3333333333333 17.1280381944444  23 17.0208333333333  L 23 1.97916666666667  C 23.3333333333333 1.87196180555554  23.2921006944444 1.77918836805554  23.2096354166667 1.70084635416667  Z M 24.3880208333333 0.581380208333333  C 24.7960069444444 0.968967013888878  25 1.43489583333333  25 1.97916666666667  L 25 17.0208333333333  C 25 17.5651041666667  24.7960069444444 18.0310329861111  24.3880208333333 18.4186197916667  C 23.9800347222222 18.8062065972222  23.4895833333333 19  22.9166666666667 19  L 2.08333333333333 19  C 1.51041666666667 19  1.01996527777778 18.8062065972222  0.611979166666659 18.4186197916667  C 0.203993055555558 18.0310329861111  0 17.5651041666667  0 17.0208333333333  L 0 1.97916666666667  C 0 1.43489583333333  0.203993055555558 0.968967013888878  0.611979166666659 0.581380208333333  C 1.01996527777778 0.193793402777789  1.51041666666667 0  2.08333333333333 0  L 22.9166666666667 0  C 23.4895833333333 0  23.9800347222222 0.193793402777789  24.3880208333333 0.581380208333333  Z " fill-rule="nonzero" fill="#098ae8" stroke="none" transform="matrix(1 0 0 1 1169 365 )" />
  </g>
</svg>