<?xml version="1.0" encoding="utf-8"?>
<svg version="1.1" xmlns:xlink="http://www.w3.org/1999/xlink" width="200px" height="200px" xmlns="http://www.w3.org/2000/svg">
  <g transform="matrix(1 0 0 1 -772 -339 )">
    <path d="M 772 339  L 972 339  L 972 539  L 772 539  L 772 339  " fill-rule="nonzero" fill="#cccccc" stroke="none" />
    <path d="M 786 353  L 958 353  L 958 525  L 786 525  L 786 353  " fill-rule="nonzero" fill="#ffffff" stroke="none" />
    <path d="M 891 399  C 882.6 399  876 392.4  876 384  C 876 375.6  882.6 369  891 369  C 899.4 369  906 375.6  906 384  C 906 392.4  899.4 399  891 399  " fill-rule="nonzero" fill="#cccccc" stroke="none" />
    <path d="M 791 520  L 791 430.9  L 831.5 390.4  L 888.2 422.8  L 920.6 414.7  L 953 422.8  L 953 520  L 791 520  " fill-rule="nonzero" fill="#169bd5" stroke="none" />
  </g>
</svg>