<?xml version="1.0" encoding="utf-8"?>
<svg version="1.1" xmlns:xlink="http://www.w3.org/1999/xlink" width="9px" height="10px" xmlns="http://www.w3.org/2000/svg">
  <g transform="matrix(1 0 0 1 -522 -965 )">
    <path d="M 5.48275565740482 9.93252840909088  C 5.42724147808644 9.977509469697  5.36150100257805 10  5.28553423087931 10  L 3.77788599255234 10  C 3.7019192208536 10  3.63617874534521 9.97869318181824  3.58066456602683 9.9360795454545  C 3.52515038670879 9.89346590909088  3.4973932970496 9.83901515151513  3.4973932970496 9.77272727272714  L 3.4973932970496 7.42897727272714  L 0.972959037525015 7.42897727272714  C 0.896992265826498 7.42897727272714  0.831251790318106 7.4076704545455  0.775737610999727 7.36505681818176  C 0.720223431681461 7.32244318181824  0.692466342022271 7.26799242424238  0.692466342022271 7.2017045454545  L 0.692466342022271 6.4701704545455  C 0.692466342022271 6.40861742424238  0.720223431681461 6.35535037878788  0.775737610999727 6.31036931818176  C 0.831251790318106 6.26538825757575  0.896992265826498 6.24289772727286  0.972959037525015 6.24289772727286  L 3.4973932970496 6.24289772727286  L 3.4973932970496 5.6392045454545  L 0.972959037525015 5.6392045454545  C 0.896992265826498 5.6392045454545  0.831251790318106 5.61789772727286  0.775737610999727 5.57528409090912  C 0.720223431681461 5.5326704545455  0.692466342022271 5.47821969696963  0.692466342022271 5.41193181818176  L 0.692466342022271 4.6732954545455  C 0.692466342022271 4.61174242424238  0.720223431681461 4.55847537878788  0.775737610999727 4.51349431818176  C 0.831251790318106 4.46851325757575  0.896992265826498 4.44602272727286  0.972959037525015 4.44602272727286  L 2.84875393869947 4.44602272727286  L 0.0350615869378998 0.340909090909122  C -0.0116871956460045 0.265151515151615  -0.0116871956460045 0.189393939393881  0.0350615869378998 0.113636363636374  C 0.0934975651675813 0.0378787878788671  0.175307934689272 0  0.280492695502744 0  L 1.98097966198793 0  C 2.09200802062446 0  2.17674018905757 0.042613636363626  2.23517616728736 0.127840909090878  L 4.11973646519618 3.14630681818176  C 4.23076482383271 3.32623106060612  4.39438556287587 3.62215909090912  4.61059868232599 4.03409090909088  C 4.66903466055578 3.9204545454545  4.75814952735607 3.75946969696963  4.87794328272696 3.55113636363637  C 4.99773703809785 3.342803030303  5.07808650816389 3.19839015151513  5.11899169292462 3.11789772727286  L 6.7931824692065 0.134943181818244  C 6.83993125179029 0.0449810606061192  6.92466342022328 0  7.04737897450582 0  L 8.72156975078769 0  C 8.82091091377822 0  8.89979948438838 0.0378787878788671  8.95823546261806 0.113636363636374  C 9.0108278430248 0.179924242424249  9.01374964193644 0.25331439393949  8.96700085935265 0.333806818181756  L 6.22343168146654 4.44602272727286  L 8.10799197937547 4.44602272727286  C 8.18395875107421 4.44602272727286  8.24969922658261 4.46851325757575  8.30521340590087 4.51349431818176  C 8.36072758521925 4.55847537878788  8.3884846748781 4.61174242424238  8.3884846748781 4.6732954545455  L 8.3884846748781 5.41193181818176  C 8.3884846748781 5.47821969696963  8.36072758521925 5.5326704545455  8.30521340590087 5.57528409090912  C 8.24969922658261 5.61789772727286  8.18395875107421 5.6392045454545  8.10799197937547 5.6392045454545  L 5.56602692638205 5.6392045454545  L 5.56602692638205 6.24289772727286  L 8.10799197937547 6.24289772727286  C 8.18395875107421 6.24289772727286  8.24969922658261 6.26538825757575  8.30521340590087 6.31036931818176  C 8.36072758521925 6.35535037878788  8.3884846748781 6.40861742424238  8.3884846748781 6.4701704545455  L 8.3884846748781 7.2017045454545  C 8.3884846748781 7.26799242424238  8.36072758521925 7.32244318181824  8.30521340590087 7.36505681818176  C 8.24969922658261 7.4076704545455  8.18395875107421 7.42897727272714  8.10799197937547 7.42897727272714  L 5.56602692638205 7.42897727272714  L 5.56602692638205 9.77272727272714  C 5.56602692638205 9.83428030303037  5.53826983672309 9.88754734848487  5.48275565740482 9.93252840909088  Z " fill-rule="nonzero" fill="#333333" stroke="none" transform="matrix(1 0 0 1 522 965 )" />
  </g>
</svg>